<svg version="1.1" viewBox="0.0 0.0 960.0 720.0" fill="none" stroke="none" stroke-linecap="square" stroke-miterlimit="10" xmlns:xlink="http://www.w3.org/1999/xlink" xmlns="http://www.w3.org/2000/svg"><clipPath id="p.0"><path d="m0 0l960.0 0l0 720.0l-960.0 0l0 -720.0z" clip-rule="nonzero"/></clipPath><g clip-path="url(#p.0)"><path fill="#000000" fill-opacity="0.0" d="m0 0l960.0 0l0 720.0l-960.0 0z" fill-rule="evenodd"/><path fill="#cfe2f3" d="m125.333336 157.64305l0 0c0 -18.525467 15.765221 -33.543312 35.212593 -33.543312l0 0c9.338959 0 18.295425 3.5340118 24.899063 9.824608c6.603653 6.2905884 10.313538 14.822464 10.313538 23.718704l0 0c0 18.525452 -15.765213 33.543304 -35.2126 33.543304l0 0c-19.447372 0 -35.212593 -15.017853 -35.212593 -33.543304z" fill-rule="evenodd"/><path stroke="#000000" stroke-width="3.0" stroke-linejoin="round" stroke-linecap="butt" d="m125.333336 157.64305l0 0c0 -18.525467 15.765221 -33.543312 35.212593 -33.543312l0 0c9.338959 0 18.295425 3.5340118 24.899063 9.824608c6.603653 6.2905884 10.313538 14.822464 10.313538 23.718704l0 0c0 18.525452 -15.765213 33.543304 -35.2126 33.543304l0 0c-19.447372 0 -35.212593 -15.017853 -35.212593 -33.543304z" fill-rule="evenodd"/><path fill="#cfe2f3" d="m125.333336 162.48048l0 0c0 -4.528534 3.6711044 -8.199646 8.199638 -8.199646l95.41174 0c2.1746826 0 4.2602844 0.8638916 5.7980194 2.4016266c1.537735 1.5377197 2.4016266 3.6233368 2.4016266 5.7980194l0 32.79756c0 4.528534 -3.671112 8.199646 -8.199646 8.199646l-95.41174 0c-4.528534 0 -8.199638 -3.671112 -8.199638 -8.199646z" fill-rule="evenodd"/><path stroke="#000000" stroke-width="3.0" stroke-linejoin="round" stroke-linecap="butt" d="m125.333336 162.48048l0 0c0 -4.528534 3.6711044 -8.199646 8.199638 -8.199646l95.41174 0c2.1746826 0 4.2602844 0.8638916 5.7980194 2.4016266c1.537735 1.5377197 2.4016266 3.6233368 2.4016266 5.7980194l0 32.79756c0 4.528534 -3.671112 8.199646 -8.199646 8.199646l-95.41174 0c-4.528534 0 -8.199638 -3.671112 -8.199638 -8.199646z" fill-rule="evenodd"/><path fill="#cfe2f3" d="m86.08662 226.95013l0 0c0 -26.553162 21.525581 -48.07875 48.078743 -48.07875l192.31496 0l0 0c12.751282 0 24.980286 5.0654297 33.996796 14.08194c9.01651 9.01651 14.08194 21.24553 14.08194 33.99681l0 0l0 0c0 26.553146 -21.525574 48.078735 -48.078735 48.078735l-192.31496 0c-26.553162 0 -48.078743 -21.525589 -48.078743 -48.078735z" fill-rule="evenodd"/><path stroke="#000000" stroke-width="3.0" stroke-linejoin="round" stroke-linecap="butt" d="m86.08662 226.95013l0 0c0 -26.553162 21.525581 -48.07875 48.078743 -48.07875l192.31496 0l0 0c12.751282 0 24.980286 5.0654297 33.996796 14.08194c9.01651 9.01651 14.08194 21.24553 14.08194 33.99681l0 0l0 0c0 26.553146 -21.525574 48.078735 -48.078735 48.078735l-192.31496 0c-26.553162 0 -48.078743 -21.525589 -48.078743 -48.078735z" fill-rule="evenodd"/><path fill="#000000" fill-opacity="0.0" d="m627.2047 109.7979l135.1181 0l0 46.86615l-135.1181 0z" fill-rule="evenodd"/><path fill="#000000" d="m640.3922 145.97977q-0.171875 0 -0.453125 -0.125q-0.828125 -0.375 -0.453125 -1.203125l7.1875 -15.96875q0.390625 -0.7968674 1.203125 -0.421875q0.828125 0.328125 0.46875 1.171875l-7.21875 15.953125q-0.234375 0.59375 -0.734375 0.59375zm2.5625 -5.859375q-0.359375 0.1875 -0.6875 0.078125q-0.3125 -0.109375 -0.515625 -0.5l-5.078125 -10.265625q-0.171875 -0.390625 -0.046875 -0.703125q0.125 -0.3125 0.484375 -0.5q0.390625 -0.15625 0.703125 -0.03125q0.3125 0.109375 0.5 0.46875l4.953125 10.28125q0.1875 0.359375 0.125 0.6875q-0.046875 0.328125 -0.4375 0.484375zm12.988281 0.578125q-1.609375 0 -2.875 -0.671875q-1.25 -0.671875 -1.984375 -1.953125q-0.71875 -1.296875 -0.71875 -3.171875l0 -5.78125q0 -0.40625 0.265625 -0.671875q0.28125 -0.28125 0.6875 -0.28125q0.40625 0 0.671875 0.28125q0.28125 0.265625 0.28125 0.671875l0 5.78125q0 1.375 0.515625 2.25q0.515625 0.875 1.40625 1.3125q0.890625 0.4375 2.0 0.4375q1.0625 0 1.921875 -0.40625q0.859375 -0.421875 1.359375 -1.140625q0.5 -0.71875 0.5 -1.640625l1.28125 0q-0.03125 1.421875 -0.734375 2.546875q-0.703125 1.125 -1.90625 1.78125q-1.203125 0.65625 -2.671875 0.65625zm4.984375 -0.140625q-0.4375 0 -0.703125 -0.25q-0.25 -0.265625 -0.25 -0.71875l0 -10.46875q0 -0.4375 0.25 -0.6875q0.265625 -0.265625 0.703125 -0.265625q0.421875 0 0.6875 0.265625q0.28125 0.25 0.28125 0.6875l0 10.46875q0 0.453125 -0.28125 0.71875q-0.265625 0.25 -0.6875 0.25zm10.727295 0.109375q-1.84375 0 -3.28125 -0.796875q-1.421875 -0.8125 -2.25 -2.234375q-0.8125 -1.421875 -0.8125 -3.265625q0 -1.859375 0.765625 -3.265625q0.78125 -1.421875 2.125 -2.234375q1.359375 -0.8125 3.125 -0.8125q1.71875 0 3.0 0.78125q1.28125 0.78125 1.96875 2.171875q0.6875 1.375 0.6875 3.140625q0 0.375 -0.25 0.625q-0.25 0.234375 -0.625 0.234375l-9.46875 0l0 -1.5625l9.578125 0l-0.96875 0.671875q0.015625 -1.25 -0.46875 -2.234375q-0.46875 -1.0 -1.359375 -1.5625q-0.875 -0.578125 -2.09375 -0.578125q-1.296875 0 -2.265625 0.59375q-0.953125 0.59375 -1.46875 1.65625q-0.5 1.046875 -0.5 2.375q0 1.34375 0.578125 2.390625q0.59375 1.03125 1.625 1.625q1.03125 0.59375 2.359375 0.59375q0.78125 0 1.578125 -0.265625q0.8125 -0.28125 1.28125 -0.6875q0.28125 -0.203125 0.625 -0.21875q0.34375 -0.015625 0.578125 0.1875q0.34375 0.296875 0.34375 0.640625q0.015625 0.34375 -0.296875 0.578125q-0.75 0.640625 -1.90625 1.046875q-1.15625 0.40625 -2.203125 0.40625zm12.643738 0q-1.40625 0 -2.734375 -0.453125q-1.3125 -0.46875 -2.109375 -1.328125q-0.265625 -0.296875 -0.234375 -0.671875q0.046875 -0.390625 0.375 -0.640625q0.359375 -0.28125 0.734375 -0.234375q0.375 0.046875 0.625 0.3125q0.5 0.59375 1.375 0.953125q0.890625 0.34375 1.953125 0.34375q1.5625 0 2.296875 -0.53125q0.734375 -0.53125 0.765625 -1.328125q0 -0.765625 -0.75 -1.28125q-0.734375 -0.53125 -2.5 -0.828125q-2.28125 -0.375 -3.34375 -1.28125q-1.046875 -0.90625 -1.046875 -2.1875q0 -1.140625 0.625 -1.90625q0.640625 -0.78125 1.671875 -1.15625q1.03125 -0.390625 2.234375 -0.390625q1.515625 0 2.625 0.515625q1.109375 0.5 1.796875 1.359375q0.25 0.3125 0.203125 0.671875q-0.03125 0.34375 -0.359375 0.546875q-0.296875 0.203125 -0.703125 0.140625q-0.390625 -0.0625 -0.65625 -0.359375q-0.578125 -0.609375 -1.296875 -0.890625q-0.71875 -0.296875 -1.65625 -0.296875q-1.171875 0 -1.90625 0.46875q-0.71875 0.46875 -0.71875 1.1875q0 0.5 0.25 0.875q0.265625 0.359375 0.9375 0.640625q0.671875 0.28125 1.921875 0.5q1.6875 0.296875 2.671875 0.828125q0.984375 0.53125 1.40625 1.234375q0.421875 0.703125 0.421875 1.5625q0 1.0625 -0.609375 1.875q-0.59375 0.796875 -1.6875 1.28125q-1.078125 0.46875 -2.578125 0.46875zm8.843689 -5.0q-0.453125 0 -0.71875 -0.265625q-0.265625 -0.28125 -0.265625 -0.6875l0 -10.874992q0 -0.453125 0.265625 -0.703125q0.265625 -0.265625 0.71875 -0.265625q0.421875 0 0.6875 0.265625q0.265625 0.25 0.265625 0.703125l0 10.874992q0 0.40625 -0.265625 0.6875q-0.265625 0.265625 -0.6875 0.265625zm9.609375 4.890625q-0.4375 0 -0.71875 -0.265625q-0.265625 -0.28125 -0.265625 -0.6875l0 -5.78125q0 -1.375 -0.515625 -2.25q-0.5 -0.875 -1.390625 -1.3125q-0.875 -0.4375 -2.015625 -0.4375q-1.0625 0 -1.90625 0.421875q-0.84375 0.40625 -1.34375 1.125q-0.5 0.71875 -0.5 1.640625l-1.3125 0q0.046875 -1.421875 0.75 -2.546875q0.71875 -1.125 1.921875 -1.78125q1.203125 -0.65625 2.671875 -0.65625q1.578125 0 2.828125 0.671875q1.265625 0.671875 2.0 1.96875q0.75 1.28125 0.75 3.15625l0 5.78125q0 0.40625 -0.28125 0.6875q-0.265625 0.265625 -0.671875 0.265625zm-9.609375 0q-0.453125 0 -0.71875 -0.25q-0.265625 -0.265625 -0.265625 -0.703125l0 -10.46875q0 -0.453125 0.265625 -0.703125q0.265625 -0.265625 0.71875 -0.265625q0.421875 0 0.6875 0.265625q0.265625 0.25 0.265625 0.703125l0 10.46875q0 0.4375 -0.265625 0.703125q-0.265625 0.25 -0.6875 0.25zm20.08667 0.109375q-1.84375 0 -3.28125 -0.796875q-1.421875 -0.8125 -2.25 -2.234375q-0.8125 -1.421875 -0.8125 -3.265625q0 -1.859375 0.765625 -3.265625q0.78125 -1.421875 2.125 -2.234375q1.359375 -0.8125 3.125 -0.8125q1.71875 0 3.0 0.78125q1.28125 0.78125 1.96875 2.171875q0.6875 1.375 0.6875 3.140625q0 0.375 -0.25 0.625q-0.25 0.234375 -0.625 0.234375l-9.46875 0l0 -1.5625l9.578125 0l-0.96875 0.671875q0.015625 -1.25 -0.46875 -2.234375q-0.46875 -1.0 -1.359375 -1.5625q-0.875 -0.578125 -2.09375 -0.578125q-1.296875 0 -2.265625 0.59375q-0.953125 0.59375 -1.46875 1.65625q-0.5 1.046875 -0.5 2.375q0 1.34375 0.578125 2.390625q0.59375 1.03125 1.625 1.625q1.03125 0.59375 2.359375 0.59375q0.78125 0 1.578125 -0.265625q0.8125 -0.28125 1.28125 -0.6875q0.28125 -0.203125 0.625 -0.21875q0.34375 -0.015625 0.578125 0.1875q0.34375 0.296875 0.34375 0.640625q0.015625 0.34375 -0.296875 0.578125q-0.75 0.640625 -1.90625 1.046875q-1.15625 0.40625 -2.203125 0.40625zm18.862488 -0.109375q-0.4375 0 -0.71875 -0.265625q-0.265625 -0.28125 -0.265625 -0.6875l0 -5.78125q0 -1.375 -0.515625 -2.25q-0.5 -0.875 -1.390625 -1.3125q-0.875 -0.4375 -2.015625 -0.4375q-1.0625 0 -1.90625 0.421875q-0.84375 0.40625 -1.34375 1.125q-0.5 0.71875 -0.5 1.640625l-1.3125 0q0.046875 -1.421875 0.75 -2.546875q0.71875 -1.125 1.921875 -1.78125q1.203125 -0.65625 2.671875 -0.65625q1.578125 0 2.828125 0.671875q1.265625 0.671875 2.0 1.96875q0.75 1.28125 0.75 3.15625l0 5.78125q0 0.40625 -0.28125 0.6875q-0.265625 0.265625 -0.671875 0.265625zm-9.609375 0q-0.453125 0 -0.71875 -0.25q-0.265625 -0.265625 -0.265625 -0.703125l0 -10.46875q0 -0.453125 0.265625 -0.703125q0.265625 -0.265625 0.71875 -0.265625q0.421875 0 0.6875 0.265625q0.265625 0.25 0.265625 0.703125l0 10.46875q0 0.4375 -0.265625 0.703125q-0.265625 0.25 -0.6875 0.25zm19.77417 0.109375q-1.765625 0 -3.125 -0.796875q-1.359375 -0.8125 -2.140625 -2.234375q-0.765625 -1.421875 -0.765625 -3.265625q0 -1.859375 0.8125 -3.28125q0.828125 -1.421875 2.234375 -2.21875q1.421875 -0.8125 3.265625 -0.8125q1.8125 0 3.21875 0.8125q1.421875 0.796875 2.21875 2.21875q0.8125 1.421875 0.828125 3.28125l-1.125 0.390625q0 1.71875 -0.703125 3.0625q-0.6875 1.328125 -1.90625 2.09375q-1.21875 0.75 -2.8125 0.75zm0.28125 4.859375q-1.734375 0 -3.109375 -0.671875q-1.359375 -0.65625 -2.296875 -1.828125q-0.25 -0.296875 -0.203125 -0.65625q0.046875 -0.34375 0.375 -0.546875q0.328125 -0.21875 0.71875 -0.15625q0.390625 0.0625 0.609375 0.390625q0.640625 0.78125 1.625 1.25q1.0 0.484375 2.3125 0.484375q1.203125 0 2.203125 -0.578125q1.0 -0.578125 1.578125 -1.671875q0.578125 -1.078125 0.578125 -2.5625l0 -3.359375l0.671875 -1.546875l1.203125 0.296875l0 4.71875q0 1.8125 -0.8125 3.265625q-0.8125 1.46875 -2.21875 2.3125q-1.40625 0.859375 -3.234375 0.859375zm0 -6.578125q1.28125 0 2.265625 -0.578125q0.984375 -0.59375 1.546875 -1.625q0.578125 -1.03125 0.578125 -2.375q0 -1.328125 -0.578125 -2.375q-0.5625 -1.046875 -1.546875 -1.625q-0.984375 -0.59375 -2.265625 -0.59375q-1.296875 0 -2.296875 0.59375q-1.0 0.578125 -1.578125 1.625q-0.578125 1.046875 -0.578125 2.375q0 1.34375 0.578125 2.375q0.578125 1.03125 1.578125 1.625q1.0 0.578125 2.296875 0.578125z" fill-rule="nonzero"/><path fill="#000000" d="m127.45407 231.80069l0 0c0 -4.528534 3.6710968 -8.199646 8.199631 -8.199646l36.136154 0c2.1746826 0 4.2602997 0.8638916 5.7980194 2.4016266c1.537735 1.537735 2.4016266 3.6233368 2.4016266 5.7980194l0 32.797577c0 4.528534 -3.6710968 8.199646 -8.199646 8.199646l-36.136154 0c-4.528534 0 -8.199631 -3.671112 -8.199631 -8.199646z" fill-rule="evenodd"/><path stroke="#000000" stroke-width="1.0" stroke-linejoin="round" stroke-linecap="butt" d="m127.45407 231.80069l0 0c0 -4.528534 3.6710968 -8.199646 8.199631 -8.199646l36.136154 0c2.1746826 0 4.2602997 0.8638916 5.7980194 2.4016266c1.537735 1.537735 2.4016266 3.6233368 2.4016266 5.7980194l0 32.797577c0 4.528534 -3.6710968 8.199646 -8.199646 8.199646l-36.136154 0c-4.528534 0 -8.199631 -3.671112 -8.199631 -8.199646z" fill-rule="evenodd"/><path fill="#cfe2f3" d="m232.43074 316.83795l0 0c7.3927917 -8.732178 6.3979034 -21.90982 -2.2221222 -29.433075l-60.37465 -52.69287l0 0c-4.139496 -3.6128082 -9.519714 -5.4118347 -14.957108 -5.0013275c-5.437393 0.4105072 -10.4865265 2.996933 -14.036667 7.190277l0 0l0 0c-7.3927917 8.732193 -6.3979187 21.909836 2.2221222 29.43309l60.37465 52.69287c8.620026 7.5232544 21.600983 6.5432434 28.993774 -2.1889648z" fill-rule="evenodd"/><path stroke="#000000" stroke-width="3.0" stroke-linejoin="round" stroke-linecap="butt" d="m232.43074 316.83795l0 0c7.3927917 -8.732178 6.3979034 -21.90982 -2.2221222 -29.433075l-60.37465 -52.69287l0 0c-4.139496 -3.6128082 -9.519714 -5.4118347 -14.957108 -5.0013275c-5.437393 0.4105072 -10.4865265 2.996933 -14.036667 7.190277l0 0l0 0c-7.3927917 8.732193 -6.3979187 21.909836 2.2221222 29.43309l60.37465 52.69287c8.620026 7.5232544 21.600983 6.5432434 28.993774 -2.1889648z" fill-rule="evenodd"/><path fill="#cfe2f3" d="m236.3373 292.52753l0 0c-5.8359528 -7.6102295 -16.665009 -8.957092 -24.187363 -3.0083313l-68.06622 53.827667c-3.6123657 2.8566895 -5.9634705 7.0481567 -6.5361176 11.652313c-0.5726471 4.6041565 0.6800995 9.243866 3.4826202 12.898407l0 0l0 0c5.8359528 7.6102295 16.665009 8.957092 24.187363 3.0083313l68.06621 -53.827667c7.5223694 -5.948761 8.889465 -16.940521 3.0535126 -24.55072z" fill-rule="evenodd"/><path stroke="#000000" stroke-width="3.0" stroke-linejoin="round" stroke-linecap="butt" d="m236.3373 292.52753l0 0c-5.8359528 -7.6102295 -16.665009 -8.957092 -24.187363 -3.0083313l-68.06622 53.827667c-3.6123657 2.8566895 -5.9634705 7.0481567 -6.5361176 11.652313c-0.5726471 4.6041565 0.6800995 9.243866 3.4826202 12.898407l0 0l0 0c5.8359528 7.6102295 16.665009 8.957092 24.187363 3.0083313l68.06621 -53.827667c7.5223694 -5.948761 8.889465 -16.940521 3.0535126 -24.55072z" fill-rule="evenodd"/><path fill="#000000" d="m276.1929 231.79938l0 0c0 -4.528534 3.671112 -8.199646 8.199646 -8.199646l36.13617 0c2.1746826 0 4.2602844 0.8638916 5.798004 2.4016266c1.5377502 1.537735 2.4016113 3.6233368 2.4016113 5.7980194l0 32.797577c0 4.528534 -3.6710815 8.199646 -8.1996155 8.199646l-36.13617 0c-4.528534 0 -8.199646 -3.671112 -8.199646 -8.199646z" fill-rule="evenodd"/><path stroke="#000000" stroke-width="1.0" stroke-linejoin="round" stroke-linecap="butt" d="m276.1929 231.79938l0 0c0 -4.528534 3.671112 -8.199646 8.199646 -8.199646l36.13617 0c2.1746826 0 4.2602844 0.8638916 5.798004 2.4016266c1.5377502 1.537735 2.4016113 3.6233368 2.4016113 5.7980194l0 32.797577c0 4.528534 -3.6710815 8.199646 -8.1996155 8.199646l-36.13617 0c-4.528534 0 -8.199646 -3.671112 -8.199646 -8.199646z" fill-rule="evenodd"/><path fill="#cfe2f3" d="m381.1709 316.83795l0 0c7.3927917 -8.732178 6.3979187 -21.90982 -2.222107 -29.433075l-60.374664 -52.69287l0 0c-4.139496 -3.6128082 -9.519714 -5.4118347 -14.957123 -5.0013275c-5.437378 0.4105072 -10.486511 2.996933 -14.036652 7.190277l0 0l0 0c-7.3927917 8.732193 -6.3979187 21.909836 2.222107 29.43309l60.374664 52.69287c8.620026 7.5232544 21.600983 6.5432434 28.993774 -2.1889648z" fill-rule="evenodd"/><path stroke="#000000" stroke-width="3.0" stroke-linejoin="round" stroke-linecap="butt" d="m381.1709 316.83795l0 0c7.3927917 -8.732178 6.3979187 -21.90982 -2.222107 -29.433075l-60.374664 -52.69287l0 0c-4.139496 -3.6128082 -9.519714 -5.4118347 -14.957123 -5.0013275c-5.437378 0.4105072 -10.486511 2.996933 -14.036652 7.190277l0 0l0 0c-7.3927917 8.732193 -6.3979187 21.909836 2.222107 29.43309l60.374664 52.69287c8.620026 7.5232544 21.600983 6.5432434 28.993774 -2.1889648z" fill-rule="evenodd"/><path fill="#cfe2f3" d="m385.07745 292.52753l0 0c-5.835968 -7.6102295 -16.665009 -8.957092 -24.187378 -3.0083313l-68.06619 53.827667c-3.6123657 2.8566895 -5.963501 7.0481567 -6.536133 11.652313c-0.57263184 4.6041565 0.6800842 9.243866 3.482605 12.898407l0 0l0 0c5.835968 7.6102295 16.665009 8.957092 24.187378 3.0083313l68.06622 -53.827667c7.522339 -5.948761 8.889465 -16.940521 3.0534973 -24.55072z" fill-rule="evenodd"/><path stroke="#000000" stroke-width="3.0" stroke-linejoin="round" stroke-linecap="butt" d="m385.07745 292.52753l0 0c-5.835968 -7.6102295 -16.665009 -8.957092 -24.187378 -3.0083313l-68.06619 53.827667c-3.6123657 2.8566895 -5.963501 7.0481567 -6.536133 11.652313c-0.57263184 4.6041565 0.6800842 9.243866 3.482605 12.898407l0 0l0 0c5.835968 7.6102295 16.665009 8.957092 24.187378 3.0083313l68.06622 -53.827667c7.522339 -5.948761 8.889465 -16.940521 3.0534973 -24.55072z" fill-rule="evenodd"/><path fill="#cfe2f3" d="m477.85565 224.72966l0 0c0 -18.525452 15.765198 -33.543304 35.212585 -33.543304l0 0c9.338989 0 18.29541 3.5340118 24.899048 9.8246c6.6036377 6.2905884 10.313538 14.822464 10.313538 23.718704l0 0c0 18.525452 -15.765198 33.54332 -35.212585 33.54332l0 0c-19.447388 0 -35.212585 -15.017868 -35.212585 -33.54332z" fill-rule="evenodd"/><path stroke="#000000" stroke-width="3.0" stroke-linejoin="round" stroke-linecap="butt" d="m477.85565 224.72966l0 0c0 -18.525452 15.765198 -33.543304 35.212585 -33.543304l0 0c9.338989 0 18.29541 3.5340118 24.899048 9.8246c6.6036377 6.2905884 10.313538 14.822464 10.313538 23.718704l0 0c0 18.525452 -15.765198 33.54332 -35.212585 33.54332l0 0c-19.447388 0 -35.212585 -15.017868 -35.212585 -33.54332z" fill-rule="evenodd"/><path fill="#cfe2f3" d="m477.85565 229.5671l0 0c0 -4.528534 3.6710815 -8.199646 8.1996155 -8.199646l95.41177 0c2.1746826 0 4.260254 0.8638916 5.7980347 2.4016266c1.5377197 1.537735 2.4016113 3.6233368 2.4016113 5.7980194l0 32.79756c0 4.528534 -3.6711426 8.199646 -8.199646 8.199646l-95.41177 0c-4.528534 0 -8.1996155 -3.671112 -8.1996155 -8.199646z" fill-rule="evenodd"/><path stroke="#000000" stroke-width="3.0" stroke-linejoin="round" stroke-linecap="butt" d="m477.85565 229.5671l0 0c0 -4.528534 3.6710815 -8.199646 8.1996155 -8.199646l95.41177 0c2.1746826 0 4.260254 0.8638916 5.7980347 2.4016266c1.5377197 1.537735 2.4016113 3.6233368 2.4016113 5.7980194l0 32.79756c0 4.528534 -3.6711426 8.199646 -8.199646 8.199646l-95.41177 0c-4.528534 0 -8.1996155 -3.671112 -8.1996155 -8.199646z" fill-rule="evenodd"/><path fill="#cfe2f3" d="m438.60892 294.03674l0 0c0 -26.553162 21.525604 -48.078735 48.078735 -48.078735l192.31497 0l0 0c12.751282 0 24.980286 5.0654144 33.996826 14.08194c9.0164795 9.01651 14.081909 21.245514 14.081909 33.996796l0 0l0 0c0 26.553162 -21.525574 48.078735 -48.078735 48.078735l-192.31497 0c-26.553131 0 -48.078735 -21.525574 -48.078735 -48.078735z" fill-rule="evenodd"/><path stroke="#000000" stroke-width="3.0" stroke-linejoin="round" stroke-linecap="butt" d="m438.60892 294.03674l0 0c0 -26.553162 21.525604 -48.078735 48.078735 -48.078735l192.31497 0l0 0c12.751282 0 24.980286 5.0654144 33.996826 14.08194c9.0164795 9.01651 14.081909 21.245514 14.081909 33.996796l0 0l0 0c0 26.553162 -21.525574 48.078735 -48.078735 48.078735l-192.31497 0c-26.553131 0 -48.078735 -21.525574 -48.078735 -48.078735z" fill-rule="evenodd"/><path fill="#000000" d="m479.97638 298.8873l0 0c0 -4.528534 3.671112 -8.199646 8.199646 -8.199646l36.13617 0c2.1746826 0 4.260254 0.8638916 5.7979736 2.4016418c1.5377808 1.5377197 2.4016724 3.6233215 2.4016724 5.798004l0 32.797577c0 4.528534 -3.6711426 8.199646 -8.199646 8.199646l-36.13617 0c-4.528534 0 -8.199646 -3.671112 -8.199646 -8.199646z" fill-rule="evenodd"/><path stroke="#000000" stroke-width="1.0" stroke-linejoin="round" stroke-linecap="butt" d="m479.97638 298.8873l0 0c0 -4.528534 3.671112 -8.199646 8.199646 -8.199646l36.13617 0c2.1746826 0 4.260254 0.8638916 5.7979736 2.4016418c1.5377808 1.5377197 2.4016724 3.6233215 2.4016724 5.798004l0 32.797577c0 4.528534 -3.6711426 8.199646 -8.199646 8.199646l-36.13617 0c-4.528534 0 -8.199646 -3.671112 -8.199646 -8.199646z" fill-rule="evenodd"/><path fill="#cfe2f3" d="m499.5331 477.42587l0 0c7.3927917 -8.732178 6.397888 -21.90982 -2.2221375 -29.433075l-60.374634 -52.69287l0 0c-4.139496 -3.612793 -9.519714 -5.4118347 -14.957123 -5.0013123c-5.437378 0.41049194 -10.486511 2.9969177 -14.036652 7.190277l0 0l0 0c-7.3927917 8.732178 -6.3979187 21.90982 2.222107 29.433075l60.374664 52.69287c8.620026 7.5232544 21.600983 6.5432434 28.993774 -2.1889648z" fill-rule="evenodd"/><path stroke="#000000" stroke-width="3.0" stroke-linejoin="round" stroke-linecap="butt" d="m499.5331 477.42587l0 0c7.3927917 -8.732178 6.397888 -21.90982 -2.2221375 -29.433075l-60.374634 -52.69287l0 0c-4.139496 -3.612793 -9.519714 -5.4118347 -14.957123 -5.0013123c-5.437378 0.41049194 -10.486511 2.9969177 -14.036652 7.190277l0 0l0 0c-7.3927917 8.732178 -6.3979187 21.90982 2.222107 29.433075l60.374664 52.69287c8.620026 7.5232544 21.600983 6.5432434 28.993774 -2.1889648z" fill-rule="evenodd"/><path fill="#cfe2f3" d="m503.43967 453.11545l0 0c-5.835968 -7.6102295 -16.665009 -8.957092 -24.187378 -3.0083008l-68.06622 53.827637c-3.6123657 2.8566895 -5.9634705 7.0481567 -6.5361023 11.652313c-0.57266235 4.604187 0.6800842 9.2438965 3.482605 12.8984375l0 0l0 0c5.835968 7.6102295 16.665009 8.957092 24.187378 3.0083008l68.06619 -53.827637c7.5223694 -5.9487915 8.889465 -16.940521 3.0535278 -24.55075z" fill-rule="evenodd"/><path stroke="#000000" stroke-width="3.0" stroke-linejoin="round" stroke-linecap="butt" d="m503.43967 453.11545l0 0c-5.835968 -7.6102295 -16.665009 -8.957092 -24.187378 -3.0083008l-68.06622 53.827637c-3.6123657 2.8566895 -5.9634705 7.0481567 -6.5361023 11.652313c-0.57266235 4.604187 0.6800842 9.2438965 3.482605 12.8984375l0 0l0 0c5.835968 7.6102295 16.665009 8.957092 24.187378 3.0083008l68.06619 -53.827637c7.5223694 -5.9487915 8.889465 -16.940521 3.0535278 -24.55075z" fill-rule="evenodd"/><path fill="#000000" d="m628.7152 298.886l0 0c0 -4.528534 3.6711426 -8.199646 8.199646 -8.199646l36.13617 0c2.1746826 0 4.260254 0.8638916 5.7980347 2.4016418c1.5377197 1.5377197 2.4016113 3.6233215 2.4016113 5.798004l0 32.797577c0 4.528534 -3.6711426 8.199646 -8.199646 8.199646l-36.13617 0c-4.5285034 0 -8.199646 -3.671112 -8.199646 -8.199646z" fill-rule="evenodd"/><path stroke="#000000" stroke-width="1.0" stroke-linejoin="round" stroke-linecap="butt" d="m628.7152 298.886l0 0c0 -4.528534 3.6711426 -8.199646 8.199646 -8.199646l36.13617 0c2.1746826 0 4.260254 0.8638916 5.7980347 2.4016418c1.5377197 1.5377197 2.4016113 3.6233215 2.4016113 5.798004l0 32.797577c0 4.528534 -3.6711426 8.199646 -8.199646 8.199646l-36.13617 0c-4.5285034 0 -8.199646 -3.671112 -8.199646 -8.199646z" fill-rule="evenodd"/><path fill="#cfe2f3" d="m756.0528 477.42587l0 0c7.392761 -8.732178 6.397888 -21.90982 -2.222107 -29.433075l-60.374695 -52.69287l0 0c-4.1394653 -3.612793 -9.519714 -5.4118347 -14.957092 -5.0013123c-5.437378 0.41049194 -10.486511 2.9969177 -14.036682 7.190277l0 0l0 0c-7.392761 8.732178 -6.397888 21.90982 2.222168 29.433075l60.374634 52.69287c8.619995 7.5232544 21.600952 6.5432434 28.993774 -2.1889648z" fill-rule="evenodd"/><path stroke="#000000" stroke-width="3.0" stroke-linejoin="round" stroke-linecap="butt" d="m756.0528 477.42587l0 0c7.392761 -8.732178 6.397888 -21.90982 -2.222107 -29.433075l-60.374695 -52.69287l0 0c-4.1394653 -3.612793 -9.519714 -5.4118347 -14.957092 -5.0013123c-5.437378 0.41049194 -10.486511 2.9969177 -14.036682 7.190277l0 0l0 0c-7.392761 8.732178 -6.397888 21.90982 2.222168 29.433075l60.374634 52.69287c8.619995 7.5232544 21.600952 6.5432434 28.993774 -2.1889648z" fill-rule="evenodd"/><path fill="#cfe2f3" d="m759.95935 453.11545l0 0c-5.8359375 -7.6102295 -16.66504 -8.957092 -24.187378 -3.0083008l-68.06622 53.827637c-3.6123657 2.8566895 -5.96344 7.0481567 -6.536133 11.652313c-0.57263184 4.604187 0.68011475 9.2438965 3.482666 12.8984375l0 0l0 0c5.8359375 7.6102295 16.664978 8.957092 24.187317 3.0083008l68.06622 -53.827637c7.5224 -5.9487915 8.889465 -16.940521 3.0535278 -24.55075z" fill-rule="evenodd"/><path stroke="#000000" stroke-width="3.0" stroke-linejoin="round" stroke-linecap="butt" d="m759.95935 453.11545l0 0c-5.8359375 -7.6102295 -16.66504 -8.957092 -24.187378 -3.0083008l-68.06622 53.827637c-3.6123657 2.8566895 -5.96344 7.0481567 -6.536133 11.652313c-0.57263184 4.604187 0.68011475 9.2438965 3.482666 12.8984375l0 0l0 0c5.8359375 7.6102295 16.664978 8.957092 24.187317 3.0083008l68.06622 -53.827637c7.5224 -5.9487915 8.889465 -16.940521 3.0535278 -24.55075z" fill-rule="evenodd"/><path fill="#cfe2f3" d="m551.49506 646.5939l0 0c7.392761 -8.732178 6.397888 -21.909851 -2.222107 -29.433105l-60.374664 -52.69287l0 0c-4.139496 -3.612793 -9.519745 -5.411804 -14.957123 -5.0012817c-5.437378 0.41046143 -10.486511 2.9968872 -14.036682 7.1902466l0 0l0 0c-7.392761 8.732178 -6.397888 21.909851 2.2221375 29.433105l60.374664 52.69287c8.619995 7.5232544 21.600952 6.543213 28.993774 -2.1889648z" fill-rule="evenodd"/><path stroke="#000000" stroke-width="3.0" stroke-linejoin="round" stroke-linecap="butt" d="m551.49506 646.5939l0 0c7.392761 -8.732178 6.397888 -21.909851 -2.222107 -29.433105l-60.374664 -52.69287l0 0c-4.139496 -3.612793 -9.519745 -5.411804 -14.957123 -5.0012817c-5.437378 0.41046143 -10.486511 2.9968872 -14.036682 7.1902466l0 0l0 0c-7.392761 8.732178 -6.397888 21.909851 2.2221375 29.433105l60.374664 52.69287c8.619995 7.5232544 21.600952 6.543213 28.993774 -2.1889648z" fill-rule="evenodd"/><path fill="#cfe2f3" d="m428.04202 630.85034l0 0c-5.835968 -7.6102295 -16.665009 -8.957092 -24.187378 -3.0083008l-68.06619 53.827637c-3.6123657 2.8566895 -5.963501 7.0481567 -6.536133 11.652344c-0.57263184 4.604126 0.6800842 9.243835 3.482605 12.8984375l0 0l0 0c5.835968 7.6101685 16.665009 8.957031 24.187378 3.0083008l68.06622 -53.827637c7.522339 -5.9487915 8.889435 -16.940552 3.0534973 -24.550781z" fill-rule="evenodd"/><path stroke="#000000" stroke-width="3.0" stroke-linejoin="round" stroke-linecap="butt" d="m428.04202 630.85034l0 0c-5.835968 -7.6102295 -16.665009 -8.957092 -24.187378 -3.0083008l-68.06619 53.827637c-3.6123657 2.8566895 -5.963501 7.0481567 -6.536133 11.652344c-0.57263184 4.604126 0.6800842 9.243835 3.482605 12.8984375l0 0l0 0c5.835968 7.6101685 16.665009 8.957031 24.187378 3.0083008l68.06622 -53.827637c7.522339 -5.9487915 8.889435 -16.940552 3.0534973 -24.550781z" fill-rule="evenodd"/></g></svg>